<?xml version="1.0" encoding="UTF-8"?>
<svg id="Layer_2" data-name="Layer 2" xmlns="http://www.w3.org/2000/svg" viewBox="0 0 953.87 108.31">
  <defs>
    <style>
      .cls-1 {
        fill: #faf9fc;
      }

      .cls-2 {
        fill: #f9f8f8;
      }

      .cls-3 {
        fill: #4a9e46;
      }

      .cls-4 {
        fill: #1f1c57;
      }

      .cls-5 {
        fill: #fed500;
      }

      .cls-6 {
        fill: #2e286c;
      }

      .cls-7 {
        fill: #171617;
      }
    </style>
  </defs>
  <g id="Layer_1-2" data-name="Layer 1">
    <g>
      <g>
        <path class="cls-5" d="M284.58,90.11h-31.1V17.92h31.1c4.47.07,8.19.59,11.17,1.57,5.06,1.67,9.16,4.72,12.29,9.16,2.51,3.59,4.23,7.48,5.14,11.66.91,4.18,1.37,8.16,1.37,11.95,0,9.6-1.93,17.73-5.78,24.39-5.22,8.98-13.29,13.47-24.19,13.47ZM295.8,36.34c-2.32-3.92-6.91-5.88-13.76-5.88h-13.91v47.11h13.91c7.12,0,12.08-3.51,14.89-10.53,1.53-3.85,2.3-8.44,2.3-13.76,0-7.35-1.14-12.99-3.43-16.95Z"/>
        <path class="cls-5" d="M384.2,17.92l-24.14,45.06v27.13h-15.08v-27.13l-24.98-45.06h17.78l14.99,31.44,14.35-31.44h17.09Z"/>
        <path class="cls-5" d="M425.87,75.27h-26.59l-5,14.84h-15.77l25.76-72.19h17.04l25.56,72.19h-16.36l-4.65-14.84ZM421.66,62.83l-9.01-28.41-9.31,28.41h18.32Z"/>
        <path class="cls-5" d="M531.41,30.71h-36.19v16.6h31.69v12.54h-31.69v30.27h-14.99V18.02h51.18v12.68Z"/>
        <path class="cls-5" d="M540.33,17.92h14.99v72.19h-14.99V17.92Z"/>
        <path class="cls-5" d="M569.37,17.92h15.08v59.21h35.75v12.98h-50.84V17.92Z"/>
        <path class="cls-5" d="M629.46,17.92h14.99v72.19h-14.99V17.92Z"/>
        <path class="cls-5" d="M689.16,64.16h-15.33v25.96h-14.99V17.92h31.44c7.25,0,13.03,1.86,17.34,5.58,4.31,3.72,6.46,9.48,6.46,17.29,0,8.52-2.16,14.55-6.46,18.07-4.31,3.53-10.46,5.29-18.46,5.29ZM696.21,49.12c1.96-1.73,2.94-4.47,2.94-8.23s-.99-6.43-2.96-8.03c-1.98-1.6-4.74-2.4-8.3-2.4h-14.06v21.26h14.06c3.56,0,6.33-.86,8.33-2.6Z"/>
        <path class="cls-5" d="M724.23,17.92h14.99v72.19h-14.99V17.92Z"/>
        <path class="cls-5" d="M811.65,90.11h-15.08l-29.48-51.28v51.28h-14.06V17.92h15.82l28.75,50.39V17.92h14.06v72.19Z"/>
        <path class="cls-5" d="M867.97,75.27h-26.59l-5,14.84h-15.77l25.76-72.19h17.04l25.56,72.19h-16.36l-4.65-14.84ZM863.76,62.83l-9.01-28.41-9.3,28.41h18.32Z"/>
        <path class="cls-5" d="M924.34,79.68c3.56,0,6.45-.39,8.67-1.18,4.21-1.5,6.32-4.29,6.32-8.37,0-2.38-1.05-4.23-3.13-5.53-2.09-1.27-5.37-2.4-9.84-3.38l-7.64-1.71c-7.51-1.7-12.7-3.54-15.57-5.53-4.87-3.33-7.3-8.54-7.3-15.62,0-6.46,2.35-11.83,7.05-16.11,4.7-4.28,11.61-6.42,20.72-6.42,7.61,0,14.1,2.02,19.47,6.05,5.37,4.03,8.19,9.89,8.45,17.56h-14.5c-.26-4.34-2.16-7.43-5.68-9.26-2.35-1.21-5.27-1.81-8.77-1.81-3.89,0-6.99.78-9.3,2.35-2.32,1.57-3.48,3.75-3.48,6.56,0,2.58,1.14,4.51,3.43,5.78,1.47.85,4.6,1.84,9.4,2.99l12.44,2.99c5.45,1.31,9.57,3.05,12.34,5.24,4.31,3.4,6.46,8.31,6.46,14.74s-2.52,12.07-7.57,16.43c-5.04,4.36-12.17,6.54-21.38,6.54s-16.8-2.15-22.19-6.44c-5.39-4.29-8.08-10.19-8.08-17.7h14.4c.46,3.3,1.35,5.76,2.69,7.4,2.45,2.97,6.64,4.46,12.59,4.46Z"/>
      </g>
      <g>
        <path class="cls-7" d="M178.92,108.31h-6.19l-5.13-.63c-22.51-3.41-40.71-21.12-44.8-43.49l-.89-6.69c.09-2.11-.12-4.33,0-6.43,1.5-25.95,22.14-47.64,47.98-50.43,36.92-3.99,66.62,29.01,58.81,65.34-5.02,23.36-25.88,41.11-49.79,42.32ZM174.04,2.25c-40.34,1.44-63.9,46.51-41.82,80.54,21.17,32.63,69.8,31.11,89.04-2.65C241.5,44.63,214.68.8,174.04,2.25Z"/>
        <path class="cls-2" d="M174.04,2.25c40.64-1.45,67.46,42.39,47.22,77.89-19.24,33.76-67.87,35.28-89.04,2.65-22.08-34.03,1.48-79.1,41.82-80.54ZM173.7,5.61c0,1.33-.03,2.71,0,4.07s-.02,3.28.12,4.48c.02.18.1.59.3.62.08.01,1.49-.07,1.57-.1.14-.05.19-.14.2-.29l-.42-8.79h-1.76ZM182.65,13.39c.28.25.16,1.65.51,1.85.08.04,1.66.31,1.75.29.16-.04.22-.24.19-.39l-1.96-8.85c-.16-.32-1.97-.53-2.23-.33-.09.07-.13.2-.2.29-1.46,2.16-2.39,5.39-3.88,7.64l-.1.5c.03.17,1.61.37,1.83.26.33-.16.65-1.34.93-1.64.2-.05,3.05.29,3.16.4ZM171.75,8.75c.37-.44-.91-1.77-1.28-2.03-1.62-1.12-4.29-.63-5.5.89-1.92,2.42-.58,7.73,2.85,8.06,2.6.25,4.66-1.48,4.55-4.12-.07-.07-1.73.26-1.87.35-.2.13,0,1.32-1.12,1.82-3.69,1.63-4.74-7.11-.45-5.72.6.2.85.97.97,1,.22.05,1.78-.17,1.84-.25ZM191.93,14.86c-.2.17-.24.43-.62.65-1.12.63-2.62-.07-2.8-1.36-.28-2.01,1.39-5.59,3.79-4.03.96.62.6,1.59.98,1.93.12.11,1.3.49,1.46.48.59-.05.24-1.6.1-2.04-.7-2.07-3.7-3.05-5.6-2.14-1.59.77-2.67,3.01-2.8,4.72-.33,4.36,5.42,6.17,7.51,2.3-.4-.23-1.67-.81-2.02-.51ZM158.4,8.91c-7.2.71-4.07,11.52,2,9.4,5.42-1.9,2.38-9.83-2-9.4ZM199.65,11.68c-.51-.02-1.37-.95-1.75-.61l-4.1,7.55c-.28.39,1.24,1.07,1.48,1.13.14.03.17-.03.25-.13l4.12-7.94ZM154.38,17.41c-.83-.83-1.77-.73-2.81-.41-.75.23-2.58,1.32-3.24,1.2-1.71-.31.07-3.04,1.86-2.47.26.08.36.4.75.29.07-.02,1.14-.84,1.17-.91.19-.56-1.09-1.15-1.53-1.22-2.62-.45-6.06,2.61-4.21,5.17s3.96.01,5.99-.3c.69-.11,1.2.49,1.02,1.14-.21.72-1.54,1.73-2.29,1.73-.53,0-.86-.58-1.3-.47-.13.03-1.2.84-1.25.95-.14.32.77.93,1.04,1.03,3.01,1.21,7.51-3.03,4.81-5.72ZM202.3,14.37c-3.1.42-5.72,5.09-3.43,7.85,4.61,5.54,12.08-3.52,6.41-7.14-.93-.59-1.87-.87-2.98-.72ZM173.92,16.43c-30.33,1.67-46.78,36.89-28.04,61.06,17.53,22.61,52.95,18.46,64.67-7.58,11.65-25.86-8.42-55.03-36.63-53.48ZM209.85,28.28c.61-2.13,1.57-4.16,2.31-6.26.01-.23-1.08-1.63-1.27-1.63l-6.86,5.54c-.11.23.8,1.43.87,1.48.09.05.18.02.27,0l4.69-3.74-2.42,6.38c-.1.38.91,1.61,1.15,1.62.51.01,5.81-4.84,6.74-5.39.5-.29-.8-1.62-.92-1.62l-4.55,3.62ZM149.81,24.41l-8.69-3.5c-.22,0-1.43,1.34-1.48,1.52-.12.46,4.03,7.42,4.53,8.4.16.04,1.22-1.17,1.25-1.3.17-.63-.9-1.25-.65-1.97.07-.19,1.82-2.14,1.96-2.17.44-.11,1.46.85,1.98.53.14-.08,1.2-1.34,1.09-1.51ZM126.28,57.14c3.08-.84,6.17-1.92,9.16-3.03.04-.49.23-1.88-.14-2.17l-8.62-3.27c-.09-.06-.28.13-.28.16v1.88c.28.02,1.69.49,1.76.6.09.13.1,2.53.06,2.86-.09.8-1.95.68-1.95,1.08v1.88ZM226.1,52.05l-9.22,2.6c-.26.22-.04,1.67-.19,2.12l8.92,3.76c-.14-.58.25-1.42.04-1.91-.12-.28-1.39-.56-1.72-.77-.1-1.05.1-2.09.16-3.13l1.86-.62.14-2.04ZM132.35,60.78c-.05-.23.11-.29.25-.41.47-.41,2.8-1.74,2.96-2.01.19-.32-.15-2.3-.36-2.3l-4.92,3.8c-.75.35-2.92.37-3.27.61-.27.19,0,1.92.3,1.96.43.07,2.04-.41,2.68-.44,1.71-.07,4.34,1.48,6.12,1.88.16.04.32.08.49.05l-.39-2.15-3.85-1ZM220.11,61.79c-1.05-1.08-2.97-.99-3.9.2-.34.44-.43.83-.6,1.34s-1.16,4.07-1.02,4.23l8.72,2.31.44-1.82c-.3-.31-3.33-.85-3.33-1.02.4-.86.29-2.8,1.61-2.73.56.03,2.19.73,2.63.43.13-.09.6-2,.48-2.13-1.15.55-2.19-.4-3.46-.25-.45.05-.65.31-1.03.49-.04-.37-.27-.78-.53-1.05ZM137.31,66.22c.17-.26-.41-1.56-.59-1.87l-.16-.03c-3.12,1.64-9.12,1.6-7.33,6.68,1.03,2.93,2.87,2.72,5.37,1.91.59-.19,4.36-1.54,4.56-1.75.15-.16-.46-1.82-.68-1.86-1.74.52-3.56,1.5-5.29,1.97-1.26.34-2.01.33-2.43-1.08s.71-1.77,1.79-2.22c.62-.26,4.61-1.53,4.75-1.74ZM215.54,69.03c-.48.06-1.13-.73-1.51-.37l-2.72,5.74,8.04,3.95,2.98-6.16c-.36-.02-1.21-.72-1.45-.56l-2.25,4.31-1.88-.91,1.81-3.77c.03-.36-1.07-.75-1.36-.88l-2.01,3.82-1.58-.68c.15-.64,2.17-4.2,1.93-4.48ZM139.85,72.2l-.46.04c-.76.71-7.15,4.21-7.27,4.62-.04.15.03.25.08.37.29.7,2.15,3.53,2.71,3.97,1.99,1.57,5.27.26,6.71-1.52,2.29-2.81-.53-5.01-1.77-7.49ZM212.26,75.71c-.04-.07-1.22-.89-1.42-.72-.36.79-4.23,5.45-4.13,5.83.06.23,1.05.9,1.36.8.28-.09,1.01-1.55,1.35-1.82.11-.08.17-.14.31-.06.74.42,5.48,4.31,5.86,4.19.09-.03,1.12-1.32,1-1.57l-5.77-4.31c.12-.47,1.64-1.98,1.44-2.34ZM137.33,84.79c-.18.26,1.15,1.6,1.48,1.55.38-.05,1.22-.79,1.58-.69.15.04,2.04,1.96,2.1,2.16.19.6-.78,1.25-.66,1.85.05.27,1.19,1.47,1.37,1.42l4.29-8.52c-.04-.29-1.28-1.66-1.71-1.52l-8.45,3.75ZM207.8,89.5s-.1-.25-.19-.35c-.25-.26-1.11-.93-1.02-1.25.11-.43,2.61-2.26,2.97-2.87.07-.16-.87-1.24-1.08-1.2-.24.04-2.69,2.75-3.05,2.79-.47.05-.95-.87-1.26-1.18-.04-.23,3.36-3.02,3.36-3.26,0-.13-.9-1.15-1.11-1.14l-4.8,4.51,6.12,6.51,4.86-4.37c.26-.45-.78-1.45-1.15-1.28l-3.21,2.98c-.11.1-.29.17-.42.1ZM158.05,90.14l-5.61-3.27-4.67,7.67c.65.48,5.48,3.55,5.84,3.46.24-.06.93-1.2.8-1.42-.11-.19-3.33-1.86-3.86-2.27-.09-.07-.19-.13-.24-.25-.02-.09.81-1.46.92-1.59.06-.07,0-.18.21-.15.62.07,3.45,2.32,3.82,2.06.06-.05.7-1.24.59-1.43-.17-.29-3.38-1.82-3.48-2.16s.66-1.1.73-1.49c.28-.2,3.61,2.3,4.06,2.3.25,0,1-1.26.89-1.45ZM202.21,90.97c.81-2.03-.61-4.05-2.84-3.75-.52.07-4.12,2.19-4.55,2.6-.11.11-.25.16-.25.35l4.79,7.55,1.51-1.02c-.17-.5-1.88-2.7-1.67-3.06.11-.19,1.98-1.15,2.35-1.12.86.08,1.5,2.28,2.2,2.42.15.03,1.69-.91,1.74-1.02.14-.33-.34-.34-.61-.6-.8-.79-1.2-2.58-2.66-2.37ZM162.06,98.12l-1.15-6.67c-.13-.26-1.64-.81-1.92-.72-.42.15-2.63,7.43-3.05,8.36.12.27,1.51.74,1.75.59l2.08-5.56,1.24,6.89,1.91.63c.17-1.06,3.17-8.22,2.91-8.59l-1.61-.51-2.14,5.59ZM193.96,95.46c1.47-1.61.17-4.23-1.98-4.2-.69.01-4.31,1.26-5,1.63-.08.04-.19.02-.21.17l3.15,8.44c.32-.12,1.53-.37,1.61-.66.11-.37-1-2.56-1.06-3.12.05-.2,1.97-.91,2.24-.92,1.24-.05,1.34,2.69,2.08,2.89.28.08,1.98-.58,1.97-.77-1.3-.85-.88-3.31-2.79-3.46ZM187.53,102.25l-4.3-8.37c-.29-.24-1.98-.06-2.2.11-.37.3-1.65,8.27-1.93,9.35.12.19.18.07.3.06.26-.01,1.44-.15,1.58-.24.29-.21.2-1.75.6-1.95.12-.06,2.51-.43,2.74-.43.66,0,.8,1.55,1.23,1.69.38.13,1.5-.31,1.98-.23ZM177.46,97.52c.02-2.8-3.1-4.17-5.5-3.26-2.54.96-3.17,4.65-2.24,6.94,1.05,2.62,5.06,3.21,6.75.97.21-.27.9-1.46.7-1.74-.12-.16-1.6-.17-1.81-.1-.18.06-.48,1.24-1.25,1.41-3.63.83-3.31-5.31-1.11-5.95.76-.22,1.8.06,2.21.78.12.21.17.69.31.78.08.05,1.88.25,1.95.18Z"/>
        <path class="cls-7" d="M173.92,16.43c28.21-1.55,48.28,27.62,36.63,53.48-11.73,26.04-47.15,30.19-64.67,7.58-18.74-24.18-2.29-59.4,28.04-61.06ZM165.46,19.73v24.01s-.17.18-.18.18h-24.32c-1.86,6.75-2.07,14.11.12,20.8l15.44.03,11.1-7.88c.15-.26-.41-2.06-.46-2.58-.3-3.67,1.55-7.27,4.81-9.01.37-.2,1.42-.4,1.49-.81l1.09-26.19c0-.14-.05-.24-.2-.29-.57-.19-3.43.24-4.21.36-.98.15-3.47.56-4.27.94-.17.08-.37.25-.41.44ZM178.46,44.74c.07.06,1.34.51,1.67.69,3.22,1.82,5.05,5.79,4.45,9.43-.08.51-.59,1.65-.34,1.98l10.88,7.8.58.14h14.81c.14,0,.26,0,.36-.12.13-.16.66-2.48.75-2.89.97-4.74.99-9.48.12-14.23-.09-.5-.69-3.4-.93-3.56l-23.96-.05-.48-.25-.18-24.32c-3.07-.84-6.26-1.46-9.46-1.39l1.59,26.36c.03.12.04.32.14.4ZM210.09,42.83c-3.39-10.59-12.07-19.12-22.56-22.68.04.12-.12.26-.12.3v22.07s.16.18.12.3h22.56ZM164.37,20.28c-1.22.21-2.47.79-3.6,1.31-7.89,3.65-14.41,10.27-17.89,18.25-.21.48-1.03,2.35-1.05,2.71,0,.1.09.28.16.28h22.19s.18-.17.18-.18v-22.37ZM175.26,45.41c-10.01.94-8.84,16.88,1.42,15.97s8.64-16.92-1.42-15.97ZM165.46,64.78v24.19c0,.1.16.29.27.34.49.23,2,.52,2.61.65,4.96,1.04,10.24,1.04,15.21,0,.92-.19,1.84-.47,2.75-.71l.02-24.17c-.02-.61,2.25,0,1.18-.69-2.02-1.29-4.23-2.29-6.24-3.59-.32-.07-1.18.64-1.56.81-3.04,1.43-6.23,1.05-8.96-.83l-6.55,3.76-.06.24h1.33ZM154.78,65.87h-12.98c.7,2.48,1.9,4.83,3.22,7.04l9.76-7.04ZM164.37,65.87h-2.61l-15.22,8.79c-.12.09-.14.22-.13.36.02.19,1.46,2,1.71,2.31,3.65,4.43,8.64,8.1,13.95,10.31.74.31,1.51.65,2.3.79v-22.55ZM190.02,65.87h-2.43s-.18.17-.18.18v22.07s.14.19.13.3c7.31-2.31,13.63-7.29,18.05-13.52l-.31-.28-15.26-8.75ZM209.97,65.87h-12.98l9.88,7.04c.82-1.43,1.63-2.88,2.27-4.41.16-.38,1.03-2.42.83-2.63Z"/>
        <path class="cls-7" d="M162.06,98.12l2.14-5.59,1.61.51c.26.37-2.73,7.53-2.91,8.59l-1.91-.63-1.24-6.89-2.08,5.56c-.23.15-1.62-.32-1.75-.59.42-.93,2.63-8.21,3.05-8.36.28-.1,1.8.45,1.92.72l1.15,6.67Z"/>
        <path class="cls-7" d="M209.85,28.28l4.55-3.62c.11,0,1.41,1.33.92,1.62-.93.54-6.23,5.4-6.74,5.39-.23,0-1.25-1.24-1.15-1.62l2.42-6.38-4.69,3.74c-.09.03-.18.05-.27,0-.08-.04-.98-1.24-.87-1.48l6.86-5.54c.19,0,1.29,1.4,1.27,1.63-.73,2.1-1.69,4.13-2.31,6.26Z"/>
        <path class="cls-7" d="M220.11,61.79c.26.26.49.68.53,1.05.37-.18.58-.43,1.03-.49,1.27-.15,2.3.79,3.46.25.12.13-.34,2.03-.48,2.13-.44.31-2.07-.39-2.63-.43-1.32-.07-1.21,1.87-1.61,2.73,0,.17,3.04.72,3.33,1.02l-.44,1.82-8.72-2.31c-.14-.16.85-3.74,1.02-4.23s.26-.9.6-1.34c.93-1.19,2.85-1.27,3.9-.2ZM219.27,63.36c-.42-.41-1.42-.53-1.86-.04-.25.28-.91,2.55-.73,2.81.09.12,2.04.65,2.19.48.11-.12.65-2.14.66-2.39s-.11-.7-.27-.86Z"/>
        <path class="cls-7" d="M202.21,90.97c1.47-.21,1.86,1.58,2.66,2.37.27.26.75.27.61.6-.04.1-1.58,1.04-1.74,1.02-.7-.13-1.34-2.34-2.2-2.42-.37-.03-2.24.93-2.35,1.12-.21.36,1.5,2.56,1.67,3.06l-1.51,1.02-4.79-7.55c0-.2.14-.25.25-.35.43-.41,4.03-2.53,4.55-2.6,2.23-.3,3.65,1.72,2.84,3.75ZM199.26,89.06c-.26.05-2.23,1.25-2.26,1.38.14.32.94,1.78,1.16,1.85.39.13,2.44-1.23,2.56-1.65.24-.8-.58-1.76-1.46-1.59Z"/>
        <path class="cls-7" d="M193.96,95.46c1.91.15,1.49,2.61,2.79,3.46,0,.19-1.69.85-1.97.77-.74-.2-.84-2.94-2.08-2.89-.27.01-2.19.72-2.24.92.07.56,1.17,2.75,1.06,3.12-.08.29-1.29.55-1.61.66l-3.15-8.44c.02-.15.13-.13.21-.17.69-.37,4.31-1.62,5-1.63,2.16-.03,3.45,2.59,1.98,4.2ZM189.72,96.05c.21.18,2.68-.75,2.91-1.13.37-.63-.05-1.78-.81-1.88-.37-.05-2.52.62-2.66.84-.26.41.58,1.65.56,2.17Z"/>
        <path class="cls-7" d="M202.3,14.37c1.11-.15,2.05.12,2.98.72,5.67,3.61-1.8,12.68-6.41,7.14-2.3-2.76.33-7.43,3.43-7.85ZM202.66,16.18c-1.83.35-3.83,3.62-2.27,5.24,2.11,2.19,5.37-1.04,5.08-3.38-.15-1.25-1.62-2.09-2.81-1.86Z"/>
        <path class="cls-7" d="M139.85,72.2c1.24,2.48,4.05,4.68,1.77,7.49-1.44,1.78-4.72,3.09-6.71,1.52-.56-.44-2.41-3.27-2.71-3.97-.05-.12-.13-.22-.08-.37.12-.41,6.51-3.91,7.27-4.62l.46-.04ZM134.41,77.51c.89,1.89,1.55,3.12,3.84,2.2.89-.36,2.46-1.45,2.47-2.51,0-.51-1.09-2.63-1.5-2.59l-4.81,2.9Z"/>
        <path class="cls-7" d="M158.4,8.91c4.38-.43,7.42,7.5,2,9.4-6.07,2.12-9.2-8.69-2-9.4ZM157.91,10.73c-3.84.66-.77,8.23,2.64,5.67,2.04-1.53.19-6.16-2.64-5.67Z"/>
        <path class="cls-7" d="M154.38,17.41c2.7,2.69-1.8,6.92-4.81,5.72-.26-.11-1.18-.72-1.04-1.03.05-.11,1.12-.92,1.25-.95.44-.11.77.46,1.3.47.75,0,2.08-1.01,2.29-1.73.19-.65-.33-1.25-1.02-1.14-2.03.32-4.16,2.83-5.99.3s1.59-5.62,4.21-5.17c.44.08,1.72.67,1.53,1.22-.02.07-1.09.89-1.17.91-.39.11-.49-.21-.75-.29-1.79-.56-3.57,2.17-1.86,2.47.66.12,2.49-.97,3.24-1.2,1.04-.31,1.98-.41,2.81.41Z"/>
        <path class="cls-7" d="M158.05,90.14c.11.18-.64,1.45-.89,1.45-.45,0-3.78-2.5-4.06-2.3-.07.39-.83,1.16-.73,1.49s3.31,1.87,3.48,2.16c.11.18-.53,1.38-.59,1.43-.37.26-3.2-1.98-3.82-2.06-.21-.02-.15.08-.21.15-.11.13-.94,1.5-.92,1.59.05.12.15.18.24.25.53.41,3.74,2.07,3.86,2.27.13.23-.55,1.36-.8,1.42-.36.09-5.2-2.98-5.84-3.46l4.67-7.67,5.61,3.27Z"/>
        <path class="cls-7" d="M215.54,69.03c.24.28-1.79,3.84-1.93,4.48l1.58.68,2.01-3.82c.29.12,1.4.52,1.36.88l-1.81,3.77,1.88.91,2.25-4.31c.24-.15,1.09.55,1.45.56l-2.98,6.16-8.04-3.95,2.72-5.74c.38-.36,1.03.43,1.51.37Z"/>
        <path class="cls-7" d="M207.8,89.5c.13.07.31,0,.42-.1l3.21-2.98c.37-.17,1.42.83,1.15,1.28l-4.86,4.37-6.12-6.51,4.8-4.51c.21-.02,1.11,1,1.11,1.14,0,.23-3.41,3.03-3.36,3.26.31.31.78,1.22,1.26,1.18.37-.04,2.81-2.74,3.05-2.79.21-.04,1.16,1.04,1.08,1.2-.36.61-2.85,2.45-2.97,2.87-.08.31.78.99,1.02,1.25.1.1.17.34.19.35Z"/>
        <path class="cls-7" d="M137.31,66.22c-.14.21-4.12,1.49-4.75,1.74-1.09.45-2.23.76-1.79,2.22s1.16,1.42,2.43,1.08c1.73-.47,3.55-1.45,5.29-1.97.21.03.83,1.69.68,1.86-.2.21-3.97,1.57-4.56,1.75-2.5.81-4.34,1.02-5.37-1.91-1.79-5.08,4.21-5.04,7.33-6.68l.16.03c.18.31.76,1.62.59,1.87Z"/>
        <path class="cls-7" d="M137.33,84.79l8.45-3.75c.43-.13,1.67,1.24,1.71,1.52l-4.29,8.52c-.18.04-1.32-1.15-1.37-1.42-.12-.6.85-1.25.66-1.85-.06-.2-1.95-2.12-2.1-2.16-.36-.09-1.2.64-1.58.69-.33.05-1.66-1.29-1.48-1.55ZM145.08,83.33l-3.15,1.52c.3.16,1.31,1.55,1.5,1.51.27-.25,1.77-2.9,1.65-3.03Z"/>
        <path class="cls-7" d="M226.1,52.05l-.14,2.04-1.86.62c-.06,1.05-.26,2.09-.16,3.13.33.22,1.6.5,1.72.77.21.49-.18,1.33-.04,1.91l-8.92-3.76c.15-.45-.07-1.91.19-2.12l9.22-2.6ZM222.46,55.08c-.12-.12-2.86.58-3.23.72-.13.05-.35.06-.17.25.27.29,2.61.82,3.09,1.21.23-.02.29-1.85.3-2.18Z"/>
        <path class="cls-7" d="M126.28,57.14v-1.88c0-.41,1.85-.28,1.95-1.08.04-.33.02-2.73-.06-2.86-.08-.11-1.49-.58-1.76-.6v-1.88s.19-.23.28-.16l8.62,3.27c.37.29.18,1.68.14,2.17-2.99,1.11-6.08,2.19-9.16,3.03ZM129.8,51.93v2c0,.05.12.16.25.13.98-.16,2.11-.85,3.14-.92-.05-.21-.28-.26-.45-.33-.35-.15-2.81-1.01-2.94-.88Z"/>
        <path class="cls-7" d="M187.53,102.25c-.48-.08-1.6.35-1.98.23-.42-.14-.57-1.69-1.23-1.69-.22,0-2.61.37-2.74.43-.4.2-.31,1.74-.6,1.95-.14.1-1.32.23-1.58.24-.12,0-.18.12-.3-.06.28-1.08,1.56-9.05,1.93-9.35.22-.17,1.9-.35,2.2-.11l4.3,8.37ZM181.71,99.58c.34-.08,2.13-.18,2.18-.43-.25-.43-1.25-2.83-1.52-2.97-.25-.12-.16.21-.18.3-.17,1.03-.4,2.05-.49,3.09Z"/>
        <path class="cls-7" d="M149.81,24.41c.12.17-.95,1.43-1.09,1.51-.52.32-1.54-.64-1.98-.53-.15.04-1.9,1.98-1.96,2.17-.25.72.82,1.34.65,1.97-.04.13-1.1,1.34-1.25,1.3-.5-.99-4.66-7.94-4.53-8.4.05-.18,1.25-1.52,1.48-1.52l8.69,3.5ZM142.05,23.19c-.12.16,1.25,2.53,1.47,2.83.08.1.11.23.28.2.1-.02,1.28-1.37,1.27-1.62-.08-.27-2.61-1.18-3.02-1.41Z"/>
        <path class="cls-7" d="M182.65,13.39c-.12-.11-2.96-.45-3.16-.4-.28.31-.6,1.48-.93,1.64-.22.11-1.79-.09-1.83-.26l.1-.5c1.5-2.24,2.42-5.47,3.88-7.64.06-.09.11-.22.2-.29.26-.19,2.07.02,2.23.33l1.96,8.85c.04.15-.03.36-.19.39-.09.02-1.67-.24-1.75-.29-.36-.2-.24-1.61-.51-1.85ZM180.26,11.42c.39.06,1.92.43,2.13.13-.15-.48-.43-3.14-.74-3.28-.18.4-1.54,2.93-1.39,3.15Z"/>
        <path class="cls-7" d="M171.75,8.75c-.07.08-1.63.31-1.84.25-.12-.03-.37-.8-.97-1-4.3-1.4-3.25,7.35.45,5.72,1.12-.5.92-1.69,1.12-1.82.14-.09,1.8-.42,1.87-.35.11,2.64-1.95,4.37-4.55,4.12-3.42-.33-4.77-5.63-2.85-8.06,1.21-1.52,3.87-2.01,5.5-.89.38.26,1.66,1.59,1.28,2.03Z"/>
        <path class="cls-7" d="M177.46,97.52c-.07.07-1.86-.12-1.95-.18-.14-.09-.18-.58-.31-.78-.41-.71-1.45-1-2.21-.78-2.21.65-2.53,6.78,1.11,5.95.77-.18,1.08-1.35,1.25-1.41.22-.07,1.7-.06,1.81.1.21.28-.49,1.47-.7,1.74-1.69,2.24-5.7,1.65-6.75-.97-.92-2.29-.29-5.98,2.24-6.94,2.41-.91,5.52.46,5.5,3.26Z"/>
        <path class="cls-7" d="M191.93,14.86c.36-.3,1.62.28,2.02.51-2.09,3.87-7.84,2.06-7.51-2.3.13-1.71,1.2-3.95,2.8-4.72,1.9-.91,4.9.06,5.6,2.14.15.43.49,1.99-.1,2.04-.17.01-1.35-.37-1.46-.48-.38-.34-.02-1.31-.98-1.93-2.4-1.56-4.07,2.02-3.79,4.03.18,1.29,1.68,2,2.8,1.36.38-.22.42-.48.62-.65Z"/>
        <path class="cls-7" d="M132.35,60.78l3.85,1,.39,2.15c-.17.02-.33-.02-.49-.05-1.78-.4-4.4-1.96-6.12-1.88-.63.03-2.25.51-2.68.44-.29-.05-.57-1.77-.3-1.96.35-.25,2.52-.27,3.27-.61l4.92-3.8c.21,0,.55,1.98.36,2.3-.16.27-2.49,1.6-2.96,2.01-.14.12-.3.19-.25.41Z"/>
        <path class="cls-7" d="M212.26,75.71c.2.36-1.31,1.87-1.44,2.34l5.77,4.31c.12.25-.91,1.54-1,1.57-.38.12-5.12-3.77-5.86-4.19-.14-.07-.2-.02-.31.06-.34.26-1.07,1.73-1.35,1.82-.31.1-1.3-.56-1.36-.8-.1-.39,3.78-5.04,4.13-5.83.2-.17,1.38.65,1.42.72Z"/>
        <path class="cls-7" d="M199.65,11.68l-4.12,7.94c-.08.09-.11.16-.25.13-.24-.06-1.76-.73-1.48-1.13l4.1-7.55c.38-.34,1.24.59,1.75.61Z"/>
        <path class="cls-7" d="M173.7,5.61h1.76l.42,8.79c0,.14-.05.24-.2.29-.07.02-1.49.11-1.57.1-.2-.03-.28-.45-.3-.62-.14-1.2-.1-3.19-.12-4.48s0-2.73,0-4.07Z"/>
        <path class="cls-3" d="M178.46,44.74c-.1-.08-.11-.28-.14-.4l-1.59-26.36c3.2-.07,6.39.55,9.46,1.39l.18,24.32.48.25,23.96.05c.24.16.84,3.06.93,3.56.87,4.75.85,9.5-.12,14.23-.08.41-.62,2.73-.75,2.89-.1.12-.22.13-.36.13h-14.81s-.58-.14-.58-.14l-10.88-7.8c-.25-.33.26-1.47.34-1.98.6-3.64-1.23-7.61-4.45-9.43-.33-.19-1.6-.63-1.67-.69Z"/>
        <path class="cls-3" d="M165.46,19.73c.04-.18.24-.35.41-.44.8-.38,3.29-.79,4.27-.94.79-.12,3.64-.55,4.21-.36.14.05.19.14.2.29l-1.09,26.19c-.08.41-1.12.61-1.49.81-3.26,1.74-5.11,5.34-4.81,9.01.04.53.61,2.32.46,2.58l-11.1,7.88-15.44-.03c-2.19-6.68-1.97-14.05-.12-20.8h24.32s.18-.17.18-.18v-24.01Z"/>
        <path class="cls-3" d="M165.46,64.78h-1.33s.06-.25.06-.25l6.55-3.76c2.73,1.88,5.92,2.27,8.96.83.38-.18,1.24-.88,1.56-.81,2.01,1.31,4.22,2.31,6.24,3.59,1.08.69-1.2.08-1.18.69l-.02,24.17c-.91.24-1.83.51-2.75.71-4.97,1.04-10.24,1.04-15.21,0-.62-.13-2.12-.42-2.61-.65-.11-.05-.27-.24-.27-.34v-24.19ZM174.61,69.99c-.29-.08-1.4,0-1.82,0-.07,0-.25.25-.13.37l2.8,5.08c.2.52-.13,3.02.17,3.22.16.11,1.66.11,1.77-.06.2-.29-.06-2.61.11-3.29.21-.7,2.79-4.86,2.73-5.15s-1.91-.27-2.15-.03c-.52.94-.89,2.33-1.46,3.21-.08.12.01.22-.27.16-.25-.51-1.41-3.41-1.76-3.52Z"/>
        <path class="cls-2" d="M210.09,42.83h-22.56c.04-.12-.12-.26-.12-.3v-22.07s.16-.18.12-.3c10.49,3.56,19.17,12.09,22.56,22.68ZM197.29,39.31c.41.13,1.39-.09,1.88,0l-3.21-8.74c-.5.1-1.71-.2-2,.2l-3.04,8.36c.02.24,1.62.24,1.86.16.34-.12.41-1.55.8-1.74.28-.14,2.8-.11,3.01.09.23.23.37,1.57.7,1.67Z"/>
        <path class="cls-2" d="M164.37,20.28v22.37s-.17.18-.18.18h-22.19c-.07,0-.17-.17-.16-.28.02-.37.84-2.23,1.05-2.71,3.47-7.98,10-14.6,17.89-18.25,1.12-.52,2.38-1.1,3.6-1.31ZM153.57,39.31h4.43c.39,0,1.31-.51,1.62-.8,1.8-1.67,1.89-6.04-.31-7.42-.19-.12-1.15-.5-1.31-.5h-4.24s-.18.17-.18.18v8.55Z"/>
        <path class="cls-2" d="M190.02,65.87l15.26,8.75.31.28c-4.41,6.22-10.73,11.21-18.05,13.52.01-.11-.13-.26-.13-.3v-22.07s.17-.18.18-.18h2.43Z"/>
        <path class="cls-2" d="M164.37,65.87v22.55c-.79-.14-1.57-.49-2.3-.79-5.31-2.2-10.3-5.87-13.95-10.31-.25-.3-1.69-2.12-1.71-2.31-.02-.14,0-.27.13-.36l15.22-8.79h2.61Z"/>
        <path class="cls-2" d="M175.26,45.41c10.06-.95,11.27,15.09,1.42,15.97s-11.42-15.03-1.42-15.97Z"/>
        <path class="cls-2" d="M209.97,65.87c.2.21-.67,2.25-.83,2.63-.63,1.53-1.45,2.98-2.27,4.41l-9.88-7.04h12.98Z"/>
        <path class="cls-2" d="M154.78,65.87l-9.76,7.04c-1.32-2.21-2.52-4.56-3.22-7.04h12.98Z"/>
        <path class="cls-2" d="M219.27,63.36c.16.16.28.62.27.86s-.55,2.27-.66,2.39c-.15.17-2.1-.36-2.19-.48-.19-.26.48-2.53.73-2.81.43-.48,1.44-.36,1.86.04Z"/>
        <path class="cls-2" d="M199.26,89.06c.88-.17,1.71.79,1.46,1.59-.13.42-2.17,1.78-2.56,1.65-.22-.07-1.03-1.53-1.16-1.85.03-.13,2.01-1.33,2.26-1.38Z"/>
        <path class="cls-2" d="M189.72,96.05c.02-.52-.82-1.76-.56-2.17.14-.23,2.3-.89,2.66-.84.75.11,1.18,1.26.81,1.88-.23.38-2.7,1.31-2.91,1.13Z"/>
        <path class="cls-2" d="M202.66,16.18c1.19-.23,2.66.61,2.81,1.86.29,2.34-2.97,5.57-5.08,3.38-1.56-1.62.44-4.9,2.27-5.24Z"/>
        <path class="cls-2" d="M134.41,77.51l4.81-2.9c.41-.04,1.5,2.09,1.5,2.59,0,1.05-1.57,2.15-2.47,2.51-2.3.91-2.95-.31-3.84-2.2Z"/>
        <path class="cls-2" d="M157.91,10.73c2.83-.49,4.68,4.14,2.64,5.67-3.41,2.56-6.48-5.01-2.64-5.67Z"/>
        <path class="cls-2" d="M145.08,83.33c.12.12-1.38,2.78-1.65,3.03-.19.04-1.2-1.35-1.5-1.51l3.15-1.52Z"/>
        <path class="cls-2" d="M222.46,55.08c-.01.33-.07,2.16-.3,2.18-.48-.39-2.82-.92-3.09-1.21-.18-.19.04-.21.17-.25.37-.14,3.1-.84,3.23-.72Z"/>
        <path class="cls-2" d="M129.8,51.93c.13-.13,2.6.72,2.94.88.17.08.4.12.45.33-1.04.08-2.17.76-3.14.92-.13.02-.25-.08-.25-.13v-2Z"/>
        <path class="cls-2" d="M181.71,99.58c.09-1.04.31-2.06.49-3.09.02-.09-.07-.43.18-.3.27.13,1.26,2.53,1.52,2.97-.05.25-1.84.35-2.18.43Z"/>
        <path class="cls-2" d="M142.05,23.19c.42.23,2.94,1.14,3.02,1.41,0,.25-1.17,1.59-1.27,1.62-.17.04-.2-.09-.28-.2-.22-.3-1.59-2.68-1.47-2.83Z"/>
        <path class="cls-2" d="M180.26,11.42c-.15-.21,1.21-2.74,1.39-3.15.31.14.59,2.79.74,3.28-.21.3-1.74-.07-2.13-.13Z"/>
        <path class="cls-7" d="M174.61,69.99c.35.1,1.51,3,1.76,3.52.28.06.19-.04.27-.16.57-.88.93-2.26,1.46-3.21.25-.24,2.1-.25,2.15.03s-2.53,4.45-2.73,5.15c-.17.68.09,3-.11,3.29-.12.17-1.61.17-1.77.06-.3-.21.03-2.7-.17-3.22l-2.8-5.08c-.12-.12.05-.37.13-.37.42,0,1.52-.08,1.82,0Z"/>
        <path class="cls-7" d="M197.29,39.31c-.32-.1-.47-1.44-.7-1.67-.2-.2-2.72-.23-3.01-.09-.39.19-.46,1.63-.8,1.74-.24.08-1.84.08-1.86-.16l3.04-8.36c.29-.4,1.5-.1,2-.2l3.21,8.74c-.49-.09-1.47.13-1.88,0ZM193.96,36.04h2c.05,0,.16-.12.13-.25-.04-.24-.84-2.86-.98-2.9-.24-.06-.18.1-.24.24-.37.85-.58,2.02-.91,2.91Z"/>
        <path class="cls-7" d="M153.57,39.31v-8.55s.17-.18.18-.18h4.24c.16,0,1.12.38,1.31.5,2.2,1.39,2.11,5.76.31,7.42-.31.29-1.23.8-1.62.8h-4.43ZM155.39,32.16c.04.12-.12.26-.12.3v5.09c0,.52,1.95.27,2.33.15,1.53-.49,1.62-2.67,1.4-4-.08-.49-.69-1.54-1.24-1.54h-2.36Z"/>
        <path class="cls-2" d="M193.96,36.04c.33-.9.54-2.06.91-2.91.06-.14,0-.3.24-.24.15.04.94,2.66.98,2.9.02.13-.08.25-.13.25h-2Z"/>
        <path class="cls-2" d="M155.39,32.16h2.36c.56,0,1.16,1.05,1.24,1.54.22,1.33.13,3.51-1.4,4-.38.12-2.33.37-2.33-.15v-5.09s.16-.18.12-.3Z"/>
      </g>
      <g>
        <path class="cls-6" d="M72.83,0v23.22s20.1-11.94,20.1-11.94l17.86,29.54-.15.16-21.16,13.09,21.5,12.48v.35l-17.62,29.62-20.53-11.94v23.74h-34.68v-23.22l-20.1,11.95L.2,67.5l21.31-13.25L0,41.67,17.62,11.8l20.53,11.94V0h34.68ZM70.92,1.56h-30.87v.17h30.87v-.17ZM39.71,26.86c-.07-.05-.12-.14-.17-.17-.21-.11-.17,0-.17,0-7.08-3.97-13.93-8.38-21.05-12.29L2.6,40.98l22.72,13.26-22.54,13.95,15.97,26.23.49-.07c6.82-3.74,13.45-8.8,20.3-12.38.2.29.17.61.18.94.24,7.82-.26,15.68.08,23.49.08-7.82.19-15.66.09-23.49,0-.29.11-.77-.18-.95.03-.01.14-.41.35-.09v24.52s30.86,0,30.86,0v-25.04c.22-.34.28.04.35.09-.29.07-.16.54-.17.78-.32,7.97.16,16.19.09,24.18l.09-24.96c.07.05.12.14.17.17.21.11.17,0,.17,0,7.08,3.97,13.93,8.38,21.05,12.29l15.71-26.58-22.72-13.26,22.54-13.95-15.97-26.23-.49.07c-6.82,3.74-13.45,8.8-20.3,12.38-.2-.29-.17-.61-.18-.94-.24-7.82.26-15.68-.08-23.49-.08,7.82-.19,15.66-.09,23.49,0,.29-.11.77.18.95-.03.01-.14.41-.35.09V1.91s-30.86,0-30.86,0v25.04c-.22.34-.28-.04-.35-.09.29-.07.16-.54.17-.78.32-7.97-.16-16.19-.09-24.18l-.09,24.96ZM70.92,106.58h-30.87v.17h30.87v-.17Z"/>
        <path class="cls-1" d="M39.71,26.86c.07.05.13.43.35.09V1.91s30.86,0,30.86,0v24.52c.21.33.32-.07.35-.09.05-.02.13.02.17,0,6.85-3.58,13.47-8.64,20.3-12.38l.49-.07,15.97,26.23-22.54,13.95,22.72,13.26-15.71,26.58c-7.12-3.91-13.97-8.32-21.05-12.29h-.17c-.05-.03-.11-.13-.17-.17s-.13-.43-.35-.09v25.04s-30.86,0-30.86,0v-24.52c-.21-.33-.32.07-.35.09-.05.02-.13-.02-.17,0-6.85,3.58-13.47,8.64-20.3,12.38l-.49.07-15.97-26.23,22.54-13.95L2.6,40.98l15.71-26.58c7.12,3.91,13.97,8.32,21.05,12.29h.17c.05.03.11.13.17.17ZM41.97,30.33l-22.96-13.33-13.8,23.38,23.75,13.95-23.58,14.3,14.04,23.15,22.55-13.44v26.17h27.05v-26.51l22.96,13.33,13.8-23.38-23.75-13.95,23.58-14.3-14.04-23.15-22.55,13.44V3.81h-27.05v26.51Z"/>
        <rect class="cls-4" x="40.06" y="106.58" width="30.87" height=".17"/>
        <rect class="cls-4" x="40.06" y="1.56" width="30.87" height=".17"/>
        <path class="cls-4" d="M39.71,26.86l.09-24.96c-.08,7.99.4,16.21.09,24.18,0,.24.12.71-.17.78Z"/>
        <path class="cls-4" d="M71.27,81.45l-.09,24.96c.08-7.99-.4-16.21-.09-24.18,0-.24-.12-.71.17-.78Z"/>
        <path class="cls-4" d="M71.44,26.34s-.12-.02-.17,0c-.29-.18-.17-.66-.18-.95-.1-7.82,0-15.67.09-23.49.34,7.81-.16,15.67.08,23.49,0,.33-.02.66.18.94Z"/>
        <path class="cls-4" d="M39.71,81.97c.29.18.17.66.18.95.1,7.82,0,15.67-.09,23.49-.34-7.81.16-15.67-.08-23.49,0-.33.02-.66-.18-.94.04-.02.12.02.17,0Z"/>
        <path class="cls-4" d="M71.44,81.62h.17s.03.11-.17,0Z"/>
        <path class="cls-4" d="M39.54,26.69h-.17s-.03-.11.17,0Z"/>
        <path class="cls-6" d="M56.71,23.22s-.32,0-.51-.09c-.12-.06-.16-.25-.19-.26.42.17.29.08.69.35Z"/>
        <path class="cls-6" d="M41.97,30.33l.17-26.34h26.7l.17,25.99,22.55-13.44,14.04,23.15-23.58,14.3,23.75,13.95-13.8,23.38-22.96-13.33-.17,26.34h-26.7l-.17-25.99-22.55,13.44-14.04-23.15,23.58-14.3-23.75-13.95,13.8-23.38,22.96,13.33ZM53.06,15.42c-.01.05.01.11,0,.17-.53-.1-.5.62-.53.95-.14,1.84.05,3.89.34,5.71,1.27.07,1.97.15,3.14.62-.63-.2-2.17-.2-2.87-.17-.33.01-.7-.18-.6.35-1.33.21-2.42.62-3.47,1.47-.33.27-1.43,1.61-1.56,1.65-.01,0-.05-.28-.17-.17-.18.15-1.26,2.84-1.34,3.25-.28,1.34-.17,2.27-.04,3.59.03.33-.21.7.34.6.35,2.5,2.03,5.92,3.65,7.88.55.66,1.38,1.23,1.9,1.82.06.07-.14.41.17.35.43-1.49.08-3.08,0-4.58-.04-.77.23-2.39-.25-2.89-.14-.15-.25.03-.26.03-.77-.54-1.13-1.1-1.56-1.91-.32-.59-.71-1.22-.7-1.91l-.17.17c-.37-1.65-.07-2.54,1.21-3.64l.99-.48c1.7.05,3.26-.44,4.72-1.28,0-.07-.16-.14-.16-.15.22-.73,1.8-.78,1.21-2.77-.04-.13-.31-.84-.35-.87.08.05.28.03.44.16.22.19.53,1.08.78.53.02-.04,0-.11,0-.17.47.31.33.17.35-.26.1-2.61,0-5.27-.09-7.88-.92-1.58-4.34-2.04-5.2-.34-.06.11.09.16.09.17ZM53.58,28.59c-.43,0-.6-.6-.7.77-.31,4.21.24,9.25.36,13.52.09,3.29-.04,6.6.16,9.89.01.21-.11.57.18.6.29.04.63-.34.87-.52.76-.57,1.47-1.36,2.08-2.08.06-.06.12-.11.17-.17.16-.16.52-.25.64-.39.21-.26.38-2.43.41-2.98.23-4.7.08-9.67.16-14.4.04-2.11.33-4.27.19-6.41-.02-.24.1-.47-.18-.6-.32-.15-.82.93-1.12,1.22-.58.56-2.44,1.54-3.22,1.55ZM59.13,48.7c-.41,1.2-3.24,3.85-4.33,4.68-.04.03-.24-.06-.32.03s0,.29-.03.32c-.15.19-.22.22-.35.35l-1.56,1.56c-.06.06-.11.12-.17.17-.6.25-1.12.85-1.39,1.39-1.17,2.36-.33,4.96,1,7.06.52.81.24-.13.26-.33.61-5.94,9.15-7.08,10.54-12.27.45.13.47-.54.5-.8.27-2.67-.16-4.23-1.71-6.31-.49-.65-1.52-1.62-1.91-2.25-.16-.27-.04-.84-.52.09v6.32ZM56.36,71.4c.1.43.46-.43.48-.47.92-2.05.48-7.2.55-9.67.01-.41.17-.79.19-1.2.01-.38.18-2.12-.53-1.74-.04.02-.89.55-.52.61-.8.55-1.45,1.56-2.25,2.08,0,0-.09-.19-.14-.15-.12.09-.53.86-.56,1.1-.11.75.17,1.41.19,2.08.07,2.84-.05,5.67.16,8.5.02.22-.1.55.18.6.65.12,1.91-1.24,2.25-1.73ZM57.23,71.4c-1.42,2-3.23,2.69-4.86,4.33-.73.74-1.16,1.61-1.44,2.64-.07.25-.28.66.05.83-.27,1.54-.25,2.86.86,4.08.13.15.7.78.87.6-.24-1.34.19-2.87.9-4.04,1.39-2.31,4.47-4.18,6.21-6.36.33-.41.83-1.03.97-1.57.1-.39-.11-.48-.11-.51.13-2.27-.06-4.41-1.21-6.41,0-.02.2-.08-.06-.35-.18-.19-.35-.34-.63-.35-.06,0-.12,0-.17,0-.38.96-.09,2.17-.18,3.2-.11,1.39-.58,2.67-1.21,3.9ZM54.62,92.89c.05.07.11.12.17.17-.06.13-.01.4-.13.64-.12.26-.49.49-.54.68-.07.28.15.22.15.23.41,1.99,1.95.07,2.6-.69,1.65-1.93,3.51-5.34,1.56-7.62-.17-.2-.84-.86-1.04-1.04s-.23-.04-.52,0l.18-7.52c.02-.21-.25-.07-.35-.11-.03-.01-.12,0-.17,0,0,0-.05-.16-.17-.09-.33.17-2.19,2.43-2.26,2.78.17,3.65-.11,7.65.16,11.27.03.44.08.93.35,1.29Z"/>
        <polygon class="cls-4" points="41.97 30.33 41.97 3.81 69.02 3.81 69.02 29.98 68.84 3.99 42.14 3.99 41.97 30.33"/>
        <polygon class="cls-4" points="69.02 77.98 69.02 104.5 41.97 104.5 41.97 78.33 42.14 104.32 68.84 104.32 69.02 77.98"/>
        <path class="cls-1" d="M57.92,25.82c-.31,2.79-.17,5.67-.17,8.49-.29.18-.17.66-.18.95-.02,1.3.01,2.6,0,3.9-.02,3.58-.17,7.18-.26,10.74-.24.2-.4.48-.6.7-.05.06-.12.11-.17.17-.64.68-1.55,1.27-2.08,2.08-.24.18-.58.56-.87.52.37-.53.02-1.07,0-1.64-.28-6.91-.15-13.88-.33-20.81-.02-.62-.67-2.17.34-2.33.78-.02,2.64-1,3.22-1.55.3-.29.8-1.37,1.12-1.22Z"/>
        <path class="cls-1" d="M59.65,42.28c.38.63,1.42,1.6,1.91,2.25,1.33,2.41,1.94,4.37,1.21,7.11-1.38,5.19-9.92,6.33-10.54,12.27-.02.2.26,1.14-.26.33-1.33-2.09-2.17-4.69-1-7.06.46-.46.91-.94,1.39-1.39.06-.06.11-.12.17-.17.53-.52,1.04-1.04,1.56-1.56.13-.13.2-.16.35-.35l.35-.35c1.09-.83,3.92-3.48,4.33-4.68.74-2.12,0-3.62.17-5.64.03-.31.06-.6.35-.78Z"/>
        <path class="cls-1" d="M57.05,24.09c.59,2-.99,2.04-1.21,2.77-.86.3-1.54.71-2.45.93-1.4.33-1.89-.05-3.09.98-1.28,1.1-1.59,1.99-1.21,3.64.14.63.31,1.34.87,1.73.43.81.79,1.37,1.56,1.91l.35,2.16v4.95c-.53-.6-1.36-1.16-1.91-1.82-1.62-1.96-3.3-5.38-3.65-7.88-.37-2.67-.24-4.92,1.21-7.28.13-.04,1.22-1.37,1.56-1.65,1.05-.86,2.14-1.26,3.47-1.47,1.48-.23,3.48-.22,4.51,1.04ZM55.3,24.11c-.16-.24-1.88-.43-1.52.57.24.66,2.09.26,1.52-.57Z"/>
        <path class="cls-1" d="M59.48,64.99c1.16,2,1.34,4.14,1.21,6.41l-.87,2.08c-1.74,2.18-4.82,4.05-6.21,6.36-.7,1.17-1.14,2.7-.9,4.04-.17.18-.74-.46-.87-.6-1.12-1.22-1.14-2.53-.86-4.08.23-1.29.7-2.37,1.39-3.47,1.63-1.64,3.44-2.33,4.86-4.33,1.59-2.25,1.42-4.44,1.39-7.11.06,0,.12,0,.17,0l.69.69Z"/>
        <path class="cls-1" d="M57.92,21.66c0,.52.02,1.04,0,1.56,0,.17.02.36,0,.52,0,.06.02.13,0,.17-1.15-1.64-3.15-1.86-5.03-1.91,0-.63.01-1.27,0-1.91,0-.4,0-.81,0-1.21,0-1.19-.03-2.12.17-3.29.01-.06-.01-.12,0-.17,1.27-1.63,4.77-1.31,5.03.95.09.78-.17,1.39-.18,2.08-.02,1.07.02,2.14,0,3.21Z"/>
        <path class="cls-1" d="M57.23,59.44c0,.29,0,.58,0,.87.01,1.24-.17,2.56-.17,3.73v6.24c0,.07-.59.97-.69,1.13-.34.49-1.6,1.86-2.25,1.73,0-1.33,0-2.66,0-3.99,0-1.11.15-2.42-.17-3.47,0-1.5-.24-3.34.35-4.68.81-.52,1.46-1.53,2.25-2.08.2-.14.48-.22.69-.35.01.29,0,.58,0,.87Z"/>
        <path class="cls-1" d="M56.71,78.85c0,.58,0,1.16,0,1.73,0,1.18-.17,2.45-.17,3.55v5.72c0,.18-1.45,2.52-1.73,3.21-.06-.05-.12-.11-.17-.17-.11-3.49-.08-7-.17-10.49-.02-.63-.3-1.19-.17-1.89.14-.77,1.67-2.26,2.25-2.87.06,0,.14-.01.17,0v1.21Z"/>
        <path class="cls-1" d="M58.44,86.3c1.39,2.76-.18,5.27-1.56,7.62-.65.76-2.19,2.68-2.6.69.68-1.52,2.78-3.88,2.95-5.46.07-.61,0-1.36,0-1.99v-.17c0-.54-.14-1.33.17-1.73.2.18.87.84,1.04,1.04Z"/>
        <path class="cls-4" d="M56.71,77.64c.1.04.37-.1.35.11l-.18,7.52c.29-.04.31-.18.52,0-.32.4-.17,1.19-.17,1.73,0,.06,0,.12,0,.17,0,.64.07,1.38,0,1.99-.17,1.57-2.27,3.93-2.95,5.46,0-.01-.23.05-.15-.23.05-.19.42-.42.54-.68.12-.25.07-.51.13-.64.28-.68,1.73-3.02,1.73-3.21v-5.72c0-1.11.17-2.38.17-3.55.29-.35.3-1.35,0-1.73v-1.21ZM57.05,87.69c.12-.24-.11-.46-.17-.34-.12.24.11.46.17.34Z"/>
        <path class="cls-4" d="M53.58,28.59c-1.01.16-.36,1.71-.34,2.33.18,6.93.05,13.9.33,20.81.02.56.38,1.11,0,1.64-.28-.03-.16-.39-.18-.6-.21-3.28-.07-6.59-.16-9.89-.12-4.27-.68-9.31-.36-13.52.1-1.37.27-.76.7-.77Z"/>
        <path class="cls-4" d="M57.92,25.82c.28.13.16.36.18.6.14,2.14-.15,4.3-.19,6.41-.08,4.73.07,9.69-.16,14.4-.03.55-.2,2.72-.41,2.98-.12.15-.48.24-.64.39.2-.22.36-.5.6-.7.09-3.56.24-7.16.26-10.74.29-.18.17-.66.18-.95.02-1.3,0-2.6,0-3.9,0-2.82-.14-5.71.17-8.49Z"/>
        <path class="cls-4" d="M56.53,77.64c-.57.6-2.1,2.1-2.25,2.87-.13.7.16,1.26.17,1.89.09,3.49.05,7,.17,10.49-.28-.36-.32-.86-.35-1.29-.27-3.62,0-7.61-.16-11.27.07-.35,1.92-2.61,2.26-2.78.12-.06.16.09.17.09Z"/>
        <path class="cls-4" d="M56.53,58.92c-.37-.06.48-.59.52-.61.71-.38.54,1.36.53,1.74-.02.41-.18.79-.19,1.2-.07,2.48.37,7.63-.55,9.67-.02.04-.38.9-.48.47.11-.15.69-1.06.69-1.13v-6.24c0-1.17.18-2.49.17-3.73.27-.11.27-.75,0-.87,0-.29,0-.58,0-.87-.21.13-.49.21-.69.35Z"/>
        <path class="cls-4" d="M54.28,61c-.59,1.34-.35,3.18-.35,4.68,0,1.11-.15,2.42.17,3.47,0,1.33,0,2.66,0,3.99-.27-.05-.16-.38-.18-.6-.21-2.83-.1-5.66-.16-8.5-.02-.68-.3-1.33-.19-2.08.03-.24.44-1.01.56-1.1.05-.04.13.16.14.15Z"/>
        <path class="cls-4" d="M53.06,15.42s-.15-.06-.09-.17c.86-1.69,4.29-1.23,5.2.34.09,2.61.2,5.27.09,7.88-.02.43.12.57-.35.26.02-.16,0-.35,0-.52.29-.32.29-1.24,0-1.56.01-1.07-.03-2.14,0-3.21.01-.69.28-1.29.18-2.08-.26-2.26-3.77-2.58-5.03-.95Z"/>
        <path class="cls-4" d="M51.5,36.05s.12-.17.26-.03c.49.51.21,2.12.25,2.89.08,1.5.44,3.09,0,4.58-.31.07-.11-.28-.17-.35v-4.95s-.35-2.16-.35-2.16Z"/>
        <path class="cls-4" d="M59.13,48.7v-6.32c.48-.93.36-.35.52-.09-.29.18-.33.47-.35.78-.17,2.01.57,3.51-.17,5.64Z"/>
        <path class="cls-4" d="M53.06,15.6c-.2,1.17-.17,2.1-.17,3.29-.29.22-.29.99,0,1.21,0,.63,0,1.27,0,1.91,1.88.05,3.88.26,5.03,1.91-.25.55-.55-.34-.78-.53-.16-.13-.36-.11-.44-.16-.4-.27-.27-.18-.69-.35-1.17-.47-1.87-.55-3.14-.62-.29-1.82-.48-3.87-.34-5.71.02-.32,0-1.05.53-.95Z"/>
        <path class="cls-4" d="M56.01,22.87s.06.2.19.26c.19.09.48.07.51.09.04.03.31.73.35.87-1.03-1.26-3.03-1.27-4.51-1.04-.1-.53.27-.33.6-.35.7-.03,2.24-.03,2.87.17Z"/>
        <path class="cls-4" d="M61.56,44.54c1.55,2.07,1.98,3.64,1.71,6.31-.03.25-.05.92-.5.8.73-2.73.11-4.7-1.21-7.11Z"/>
        <path class="cls-4" d="M47.52,26.17c-1.45,2.35-1.59,4.61-1.21,7.28-.55.1-.31-.28-.34-.6-.13-1.32-.24-2.26.04-3.59.09-.42,1.17-3.1,1.34-3.25.12-.1.16.18.17.17Z"/>
        <path class="cls-4" d="M55.84,26.86s.16.08.16.15c-1.46.84-3.02,1.32-4.72,1.28l-.99.48c1.21-1.03,1.69-.65,3.09-.98.92-.22,1.59-.63,2.45-.93Z"/>
        <path class="cls-4" d="M56.88,93.93c1.38-2.35,2.95-4.87,1.56-7.62,1.95,2.29.09,5.69-1.56,7.62Z"/>
        <path class="cls-4" d="M57.23,71.4c.63-1.23,1.1-2.51,1.21-3.9.08-1.03-.2-2.24.18-3.2.04,2.66.2,4.86-1.39,7.11Z"/>
        <path class="cls-4" d="M50.98,79.2c-.33-.17-.12-.58-.05-.83.28-1.03.71-1.9,1.44-2.64-.68,1.1-1.16,2.18-1.39,3.47Z"/>
        <path class="cls-4" d="M59.48,64.99l-.69-.69c.28,0,.45.16.63.35.26.26.05.33.06.35Z"/>
        <path class="cls-4" d="M59.83,73.48l.87-2.08s.21.12.11.51c-.14.54-.64,1.16-.97,1.57Z"/>
        <path class="cls-4" d="M49.94,34.14c-.56-.39-.72-1.1-.87-1.73l.17-.17c-.02.69.38,1.32.7,1.91Z"/>
        <path class="cls-4" d="M54.8,53.37l-.35.35s-.06-.24.03-.32.28,0,.32-.03Z"/>
        <path class="cls-4" d="M52.37,55.8c-.47.45-.93.93-1.39,1.39.27-.54.78-1.14,1.39-1.39Z"/>
        <path class="cls-4" d="M54.45,52.86c.53-.81,1.44-1.4,2.08-2.08-.61.72-1.32,1.51-2.08,2.08Z"/>
        <path class="cls-4" d="M52.54,55.63l1.56-1.56c-.52.52-1.03,1.04-1.56,1.56Z"/>
        <path class="cls-6" d="M57.57,39.16c0-1.3-.02-2.6,0-3.9,0-.29-.11-.77.18-.95,0,1.3.02,2.6,0,3.9,0,.29.11.77-.18.95Z"/>
        <path class="cls-6" d="M55.3,24.11c.57.83-1.29,1.23-1.52.57-.36-1,1.36-.81,1.52-.57Z"/>
        <path class="cls-6" d="M57.92,23.22c.02-.52,0-1.04,0-1.56.29.32.29,1.24,0,1.56Z"/>
        <path class="cls-6" d="M52.89,20.1c-.29-.22-.29-.99,0-1.21,0,.4,0,.81,0,1.21Z"/>
        <path class="cls-6" d="M54.1,69.14c-.32-1.04-.17-2.36-.17-3.47.32,1.04.17,2.36.17,3.47Z"/>
        <path class="cls-6" d="M57.23,60.31c0-.29,0-.58,0-.87.27.11.27.75,0,.87Z"/>
        <path class="cls-6" d="M56.71,80.58c0-.58,0-1.16,0-1.73.3.38.29,1.38,0,1.73Z"/>
        <path class="cls-6" d="M57.23,87.17c0-.05,0-.12,0-.17v.17Z"/>
        <path class="cls-6" d="M57.05,87.69c-.06.12-.29-.1-.17-.34.06-.12.29.1.17.34Z"/>
      </g>
    </g>
  </g>
</svg>