<?xml version="1.0" encoding="UTF-8"?>
<svg id="Layer_2" data-name="Layer 2" xmlns="http://www.w3.org/2000/svg" viewBox="0 0 2336.12 2336.12">
  <defs>
    <style>
      .cls-1 {
        fill: #fff;
      }

      .cls-2 {
        fill: #e3d100;
      }

      .cls-3 {
        fill: #b2170f;
      }
    </style>
  </defs>
  <g id="Layer_1-2" data-name="Layer 1">
    <rect class="cls-3" width="2336.12" height="2336.12" rx="236.23" ry="236.23"/>
    <g>
      <path class="cls-1" d="M1281.36,1164.46c-14.05,8.37-28.43,13.37-44.33,17.77,2.19,1.06,4.43,2,6.59,2.49,16.61,3.78,32.49,9.24,47.17,17.78,8.56,4.97,15.6,10.93,22.43,17.89,11.05,11.25,18.46,29.37,20.92,45.04,4.29,27.34.79,63.2-16.27,85.85l-4.51,5.99c-7.71,10.24-24.89,22.26-37.1,27.87-17.36,7.98-35.71,12.46-54.81,15.15-9.28,1.31-26.97,3.04-36.64,3.04l-203.56.07c-2.97,0-4.85,1-7.94-.59v-426.76s170.85.17,170.85.17l21.16.98,13.67.65,18.68,2.02,12.81,1.71c2.73.36,5.77,1.05,8.51,1.61l9.33,1.91c16.73,3.42,32.09,8.99,47.03,16.98,36.73,19.67,51.44,54.66,47.68,95.56-1.94,21.12-9.25,39.46-25.13,53.87-5.19,4.71-10.1,9.09-16.54,12.93ZM1207.07,1106.52c1.83-21.95-7.48-36.9-27.96-45.27-10.22-3.31-20.74-6.4-31.78-6.41l-58.56-.1-.07,94.18,56.05.18c6.45.02,12.86-1.34,19.06-2.18,11.23-2.61,18.12-3.47,27.9-10.81s14.38-17.78,15.36-29.59ZM1207.93,1301.12c8.46-14.52,9.71-32.87,2.85-48.46-2.42-5.5-7.04-10.4-11.56-14.2-10.15-8.5-34.29-13.71-47.57-14.25-3.22.77-6.46-.78-9.52-.78h-53.35s-.08,95.99-.08,95.99c0,2.31.14,4.36,1.39,6.22l38.33.1c10.52.03,20.42-.68,30.89-1.77,17.05-1.78,39.33-6.9,48.62-22.86Z"/>
      <path class="cls-1" d="M1750.98,1140.11c-.34,3.16-1.16,6.43-1.84,9.41-5.74,25.43-18.4,49.08-38.39,65.84-24.05,20.17-51.49,30.37-82.12,34.28l-16.07,2.05-24.95.43h-81.28s-.02,152.18-.02,152.18l-119.99-.18.03-428.07,202.69.04,15.81,1.09,11.94.78,14.46,1.85c3.92.5,7.75,1.23,11.68,2,33.18,6.49,62.31,19.96,84.14,46.72,10.28,12.6,16.72,27.38,20.88,43.16,1.2,4.57,2.67,9.31,3.14,13.82l1.46,13.93c.86,8.23.94,17.24.06,25.43l-1.63,15.25ZM1604.4,1064.47c-8.24-3.44-18.06-6.02-27.01-6.58l-10.32-.98-60.77-.06v110.46s68.13-.27,68.13-.27c12.94-1.66,25-3.84,35.75-10.82,11.61-7.48,18.43-18.44,20.45-32.25,3.54-24.15-1.44-49.16-26.23-59.5Z"/>
      <path class="cls-2" d="M461.8,1380.33c-36.45-24.63-54.37-39.92-44.82-86.27l1.64-7.95,1.77-10.18,1.89-10.05,9.91-53.34,1.98-11.12,1.54-8.52,1.86-10.28,1.87-9.99,11.34-61.27,1.21-6.58,7.69-40.73c3.8-1.54,7.89-1.99,12.26-2.72l10.02-1.69c4.36-.73,7.66-1.11,12.37-1.34l-2.05,11.97-1.74,9.91-4.22,22.57-1.93,11.95-1.57,7.56-1.77,10.35-1.73,10.32-1.69,10.27-1.73,9.24-1.8,10.28-1.61,9.55-1.85,11.05-1.76,10.34-18.51,108.81c-.8,4.7.42,9.72,2.11,13.88,3,7.41,14.07,16.53,20.86,21.11l31.22,21.09,6.75,4.46,37.74,24.77,41.3,27.25,47.27,30.6.06-407.55,44.26.4,12.98.65,20.58.99,17.09,1.4,30.33,2.88,17.64,2.01,12.15,1.55,12.89,1.76c4.52.62,8.54,1.25,13.04,2.35l7.08,38.98,4.49,25.46,3.92,22.6,1.53,8.83,1.78,10.25,1.93,11.09,1.39,6.77,1.89,11.96,1.43,8.63,3.62,21.34,1.79,10.16,5.79,34.25,1.59,9.46,4.05,24.09c2.56,15.25-.86,32.47-11.08,44.35-8,9.29-16.79,16.65-26.92,23.7l-66.54,46.29-22.5,15.36-28.03,19.17-50.34,34.32c-5.39,3.67-10.29,7.01-16.22,10.02l-16.46-10.96-39.07-25.83-14.96-10.02-12.82-8.57-28.18-18.96-17.46-11.58-27.59-18.68-20.98-14.17ZM758.12,1128.81l-6.48-.39c3.09-2.89,5.04-5.38,3.39-9.92,2.05-.49,4.92,1.17,5.57,3.13.85,2.54-.82,4.65-2.51,6.93,2.98-.57,4.99-3.53,4.36-6.28-.53-2.3-2.41-4.42-4.66-5.26l-10.76-4.01c-1.08-.4-3.67-.43-4.19-1.32s-.84-3.07-1.15-4.59c-.25-1.21-4.07-1.36-4.45-.19-.31.98-.24,2.74-.09,4.6l-11.26,4.02c-3.88,1.39-8.81,2.22-9.55,7.11s4.62,6.32,7.57,8.58c1.33,1.02,2.21,3.1,4.32,2.64,8.15-1.77,15.77-.89,23.82-.35l6.06-4.7ZM728.99,1343.97l6.03-2.63.26-7.75c0-.29,1.24-.91,1.33-1.19-.87,2.78-.87,10.93,1.03,15.28,5.96-7.77,9.86-1.1,12.71-8.83,1.4-3.79,3.07-7.53,4.86-10.93l6.01-1.25c1.54-19.59,14.6-18.04,11.29-39.14l-3.34,3.16c-.69.66-3.32.32-4.22-.24-3.15-1.96-4.12-5.84-4.19-9.41-.33-16.13,7.09-23.77,9.29-19.76,4.65,8.49,13.37,13.98,23.12,11.7,4.42-1.03,7.43-6.1,8.55-9.49,3.4-10.32-8.1-18.59-6.34-23.32l4.61-12.33c-4.14,2-5.08,4.01-9.03,6.99l5.86-16.04-8.31,6.84c.93-4.92,2.67-8.96,4.85-14.74-3.53,1.75-5.98,4.34-9.31,8.44-4.65-5.87-2.04-20.23-1.09-28.38.39-3.4.76-6.53,1.4-9.69l2.2-10.85,1.43-7.05c1.54-7.61,3.18-14.38,9.11-20.36-7.25.43-11.17,6.13-11.67,12.85-1.24-5.73-6.83-18.71-15.5-18.79,2.84,6.16,6.14,11.8,6.2,18.77.05,4.99.39,10.42-.39,15.07l-4.04,24.32c-2.83,17.02,1.15,26.06,10.04,40.86,3.9,6.49,8.37,12.26,11.49,19.1,1.21,2.66-.17,7.42-2.68,8.08-5.46,1.43-9.04-3.15-11.44-7.26l-5.45-9.34c-6.51-11.16-4.1-8.17-14.14-18.28l-12.52-12.62c7.13-6.27,10.75-13.68,11.66-22.79l3.05,1.13c1.12-8.83,1.4-17.53.65-26.01,1.51-.54,3.83-1.32,3.73-2.4l-.42-4.25c-1.03-10.37-6.19-21.18-16.79-24.38-9.28-2.8-18.56-.19-27.89,2.48,1.84.89,3.45,1.49,5.43,2.21l-5.12,2.21c-.13,3.7,1.27,7.52,3.42,10.43,1.33-1.79,3.51-4.69,4.82-4.04,5.19,2.59,5.17,9.38,3.19,14.11l-5.96-1.15c-1.89,4.84,1.33,13.2,2.64,11.37l1.39-1.94c.67-.93,1.79-2.17,2.46-2.78.56-.5,3.02.21,3.16,1.18,1.48,10.04-12.23,10.55-17.73,12.73-15.45,6.1-18.52,27.15-33.51,33.23,4.7,12.84,13.96,7.74,7.99,15.97-3.29,4.53-6.45,9.23-12.14,12.19-2.55-5.01-9.28-5.21-12.46-1.9,1.25,1.83,2.23,4.22,2.64,6.23l6.01,2.31-5.66.22c-2.95.12-4.91,4.51-5.1,7.47l5.2,3.19c2.21-2.2,3.76-3.53,6.08-3.9-3,4.62-6.69,8.44-4.79,13.29l6.02.12c2.64.05,5.39-4.8,6.72-6.39,2.09,1.1,5.05,2.51,6.84,3.06,4.1-4.34-.89-11.13,3.49-18.35,2.88-1.68,13.35,2.55,13.28-3.79-1.04-1.28-3.1-3.45-3.24-4.84s1.37-3.71,2.7-4.37c10.23-5.08,21.93,8.53,28.25,15.02,2.01,2.07,3.53,3.8,3.44,6.89-.54,18.02-2.02,22.69,6.42,37.95l.6,7.72,3.42-2.61c.88-.68,2.48-1.67,3.44-1.98.74-.24,2.13.84,2.78,1.64-3.47,6.3-7.08,12.71-11.95,17.61-4.07,4.08-10.02,3.53-13.82.12-2.91-2.61-6.07-1.67-8.61.8l-4.24,2.36,3.65,3.87,3.43-1.97c-2.4,4.45-3.81,6.99-5.29,11.5l6.81,1.22.82-3.73,1.11,10.01ZM726.55,1158.36l-9.4,2.57c-2.73.75-5.33-.65-6.61-3.22-.55,1.45-.75,5.23.36,6.86,1.76,2.58,6.1,1.83,8.08.16l7.57-6.37ZM691.02,1209.22c3.31-4.57,5.39-7.2,7.22-11.02.68-2.15-2.74-6.27-4.43-7.75-8.97-7.85-3.83-12.66-4.95-23.91-.09-.92-2.03-2.58-2.81-2.24-.62.27-1.96,1.73-2.02,2.43l-.78,8.82c-1.15-5.2-3.45-9.67-9.37-11.44-2.44,6.92,3.61,8.6,3.34,14.19-2.18-1.43-3.1-2.14-4.68-3.57s-5.83-1.56-6.26.57c6.07,10.16,10.11,13.57,4.04,24.25,4.58,5.45,8.56-3.37,10.67-2.37l10.04,12.04ZM687.2,1302.79l5.31,2.29,2.91-5.38c1.39,6.52-3.14,6.44.18,14.16l2.48-3.53c9.01,4.32,9.42-12.89,17.05-1.85,10.42-9.21,21.81-1.05,23.66-11.09-5.33-7.18-11.07-13.93-11.01-23.27.01-1.6,1.13-4.85,2.47-5.46s4.71-.29,6.3-.25c2.47-2.98.29-7.6-2.85-10.06-2.02-1.58-2.08-4.05-2.58-6.62-.65-3.35-8.39-5.95-11.06-3.22l-9.8,10.05c-1.07.56-3.75.6-4.06,1.6-1.47,4.73,2.47,5.53,5.7,8.14-.3,7.37,3.44,14.61,7.67,20.41.08.91-2.11,1.48-3.05,1.71-17.57,4.2-17.73-12.38-27-12.23-1.11,1.2-1.19,5.37.35,5.84,1.7.52,3.81,1.45,4.09,2.63-4.14.53-6.71.76-10.53,2,.47,2.76,2.12,4.67,4.07,6.7l4.33-3.54c-.39,5.46-2.63,4.38-4.65,10.97Z"/>
      <path class="cls-1" d="M1921.67,1404.18l-3.38-.81-104.19.07c-3.87,0-7.42,1.03-11.11-.26v-427.25s118.62.02,118.62.02l.02,421.28.03,6.95Z"/>
      <path class="cls-2" d="M695.28,1026.97l-11.59-1.17-39.25-.71-14.69.03c-15.99.04-31.48.92-47.37,1.73l-12.53.64-20.45,1.86-15.5,1.67-13.78,1.64c-6,.72-11.31,2.16-17.46,1.2l5.99-31.48c3.93-1.14,7.72-2.24,11.58-3.02l7.7-1.55-11.57-4.66c-9.92-4-18.38-10.99-24.55-19.55-12.78-17.73-9.36-42.42,6.79-55.89,8.23-6.87,17.49-11.33,27.81-14.25,5.23-1.48,11.47-3.66,16.71-3.96,8.9-.51,14.78-3.26,22.15-7.81,16.1-9.94,34.84-13.67,53.9-16.21-4.14-6.27-7.88-11.77-7.01-18.65,1.28-10.07,10.11-18.24,19.97-19.56,12.3-1.65,24.49,5.05,27.19,16.91,1.84,8.09-1.37,14.5-6.95,21.07,2.96.84,5.99,1.26,9.12,1.61,11.6,1.3,22.37,4.49,33.22,8.69,7.17,2.77,13.22,6.94,19.88,10.85,4.09,2.41,9.73,2.03,14.29,3l7.92,1.68c17.16,3.65,40.44,13.64,47.42,30.51,8.19,19.78,3.5,36.72-11.74,50.92-7.35,6.85-15.99,10.49-25.59,15.01,8.75,4.72,15.21.52,16.63,8.14l2,10.72,2.9,17.23-16.09-1.71-17.11-1.83-12.97-1.34c-8.97-.92-17.52-.8-26.99-1.76ZM613.42,988.55c4.03.91,7.1,1.52,10.56.9l-4.81-10.43c-7.89-27.19-7.77-56.82,3.29-84.01-16.94.26-42.6,12.61-49.85,27.25-8.17,11.73-7.67,29.78.77,41.62,9.42,13.22,23.9,21.02,40.05,24.67ZM696.71,966.62c9.3-11.63,11.51-26.92,5.08-40.23-6.4-13.25-19.1-22.23-32.6-27.05-5.16-1.85-14-5.07-19.42-3.87,2.14,6.15,4.31,11.31,5.78,17.56,3.11,13.22,2.97,31.66,1.8,45.43-1,11.72-3.78,19.41-8.73,30.73,2.31.61,5.12.5,7.76-.05,15.92-3.35,30.06-9.69,40.33-22.52ZM559.02,988.29l10.74-.59-8.04-4.77c-9.52-5.65-18.62-12.97-23.07-23.54-6.01-14.29-3.39-30.22,4.89-43.69-7.08-.39-13.35,2.73-19.07,6.08-6.74,3.93-11.35,8.95-14.28,16.19-6.34,15.69-.36,32.64,14.11,41.66,10.29,6.42,21.97,9.36,34.72,8.66ZM722.33,988.24c11.25-1.19,21.79-4.58,30.38-11.89,5.37-4.57,9.55-10.25,11.05-17.46,1.84-8.86.6-19.55-4.89-26.96-7.12-9.62-17.74-15.9-30.26-16.21,11.31,17.54,11.73,39.86-2.4,54.69-6.53,7.55-14.21,12.63-23.81,17.12,6.2,2.45,13.07,1.43,19.94.71Z"/>
      <path class="cls-2" d="M523.36,1285.62l-4.07-.08c-.85-.02-.94-2.83-.83-3.72l1.37-11.09,1.7-15.47,1.63-10.18,1.82-15.43,1.67-12.74,1.59-13.95,1.76-11.7,1.83-15.5,1.51-13.06c.1-.87.33-2.36.54-2.97.27-.77,2.22-1.1,3.27-1.09l42.49.07,4.35,34.23,1.64,12.8,1.93,15.39,1.49,11.17,1.67,13.74,1.86,15.27,1.44,11.44c.54,4.31.92,8.4,1.24,13.03l-57.44-.08-14.47-.07ZM566.9,1202.18c.34-1.5.41-5.09.38-6.86l-20.57-.06-.03,7.06,16,.12c.91,0,4.01.66,4.21-.25ZM567.04,1227.14c.4-2.23.38-4.9-.29-6.52l-20.09.14.32,6.49,20.06-.1ZM567.24,1251.74c.12-2.6.01-4.96-.59-6.82l-20.01-.02.04,6.96,20.56-.12Z"/>
      <polygon class="cls-2" points="577.32 1315.15 535.63 1315.08 535.04 1322.76 509.15 1322.56 509.27 1290.6 603.81 1290.6 603.85 1322.69 578.02 1322.69 577.32 1315.15"/>
      <polygon class="cls-2" points="590.97 1153.97 522.76 1153.94 522.73 1122.05 537.88 1121.89 537.62 1133.44 549.25 1133.79 549.54 1121.04 565.16 1121.05 565.31 1133.56 575.64 1133.7 576.15 1121.79 591.05 1121.7 590.97 1153.97"/>
      <path class="cls-2" d="M744.53,1142.1l-10.4,3.78-.56-5.09c3.96-.43,6.63-1.38,10.97,1.31Z"/>
      <path class="cls-2" d="M738.82,1127.85c-3.77,2.34-10.45-1.58-10.11-6.21.29-3.92,5.64-6.94,9.74-6.37-2.14,3.94-2.16,7.37.37,12.58Z"/>
      <path class="cls-2" d="M751.2,1121.36c.32,4.67-5.51,7.58-8.97,7.18.49-4.82.71-8.75.57-13.25,2.89-.58,8.1,1.66,8.41,6.07Z"/>
      <path class="cls-2" d="M721.14,1119.2c6.59-4.67.32,4.23,7.13,9.26-2,.33-5.47-.21-6.93-1.5-1.97-1.75-1.97-6.51-.21-7.76Z"/>
    </g>
  </g>
</svg>